<svg width="69" height="69" viewBox="0 0 69 69" fill="none" xmlns="http://www.w3.org/2000/svg">
<path d="M30.5363 14.9981C28.1439 13.5815 27.8909 10.2164 30.0445 8.45791L31.2384 7.48311C32.5382 6.42177 34.3623 6.2846 35.8063 7.13962L51.9759 16.7143C52.7452 17.1698 53.3397 17.8699 53.6645 18.7029L61.4373 38.6347C62.0675 40.2509 61.5842 42.0891 60.2405 43.1863L58.9594 44.2323C56.8562 45.9496 53.6895 45.117 52.7029 42.5872L45.8705 25.0668C45.5457 24.2338 44.9512 23.5337 44.1819 23.0782L30.5363 14.9981Z" fill="#FF6347"/>
<path d="M15.7916 27.0369C14.882 24.4095 11.6355 23.4887 9.48183 25.2472L8.28799 26.222C6.98815 27.2833 6.48896 29.0432 7.03796 30.6289L13.1857 48.3866C13.4782 49.2315 14.0452 49.954 14.7964 50.4388L32.7712 62.0405C34.2287 62.9812 36.1265 62.8752 37.4702 61.7781L38.7512 60.7321C40.8545 59.0147 40.672 55.7455 38.3905 54.273L22.5904 44.0749C21.8392 43.59 21.2721 42.8676 20.9797 42.0227L15.7916 27.0369Z" fill="#FF6347"/>
<path d="M45.1312 27.2957C45.1302 27.2967 45.1292 27.2977 45.1282 27.2987L45.1312 27.2957ZM45.1312 27.2957L44.8676 27.0338L44.8598 27.0261L44.8584 27.0246L44.8545 27.0208L44.8544 27.0207L44.8535 27.0198L44.3276 26.4972L45.6683 26.2167C45.5622 26.1091 45.4361 26.0237 45.2971 25.9654C45.1609 25.9083 45.015 25.8784 44.8675 25.8772C44.8645 25.8812 44.8614 25.8852 44.8584 25.8892C44.7594 26.0189 44.6551 26.1447 44.5458 26.2664C44.4768 26.3433 44.4057 26.4186 44.3327 26.4921L44.3314 26.4933L44.7682 26.926L44.7682 26.9261L44.8573 27.0143L44.8581 27.0152L44.8584 27.0154L44.859 27.0161L44.861 27.018L44.8691 27.0261L45.1362 27.2907L45.1312 27.2957Z" fill="#FF6347" stroke="#FF6347" stroke-width="10"/>
</svg>
